<?xml version="1.0" encoding="UTF-8"?>
<svg id="Livello_1" data-name="Livello 1" xmlns="http://www.w3.org/2000/svg" viewBox="0 0 30 30">
  <defs>
    <style>
      .cls-1 {
        fill: #459dff;
        stroke: #3d3d3d;
        stroke-miterlimit: 10;
        stroke-width: .5px;
      }
    </style>
  </defs>
  <path class="cls-1" d="M17.28,7.48h-4.53c-1.78,0-3.22,1.44-3.22,3.22v4.63c0,1.19.64,2.22,1.6,2.78.17.1.39-.02.39-.22v-6.9c0-.11.09-.2.2-.2h0c.11,0,.2.09.2.2v16.43c0,.8.61,1.49,1.41,1.52.83.02,1.5-.64,1.5-1.46v-8.33c0-.11.09-.2.2-.2h0c.11,0,.2.09.2.2v8.27c0,.8.61,1.49,1.41,1.52.83.02,1.5-.64,1.5-1.46V10.99c0-.11.09-.2.2-.2h0c.11,0,.2.09.2.2v6.88c0,.2.22.32.39.22.93-.56,1.56-1.59,1.56-2.76v-4.63c0-1.78-1.44-3.22-3.22-3.22Z"/>
  <circle class="cls-1" cx="15.03" cy="3.92" r="2.86" transform="translate(7.76 17.65) rotate(-76.72)"/>
</svg>